<?xml version="1.0" encoding="utf-8"?>
<svg width="176" height="52" xmlns="http://www.w3.org/2000/svg">
  <g fill="#FFF" fill-rule="evenodd">
    <path d="M 0 16.47 L 0 16.598 L 29.754 30.362 L 59.613 16.551 L 59.613 16.516 L 29.754 2.706 L 0 16.47 Z M 10.727 16.534 L 29.755 7.732 L 48.785 16.534 L 29.754 25.335 L 10.727 16.534 L 10.727 16.534 Z M 29.754 35.708 L 0 22.15 L 0 27.164 L 29.754 40.754 L 59.613 27.118 L 59.613 22.103 L 29.754 35.708 Z M 29.754 45.878 L 0 32.318 L 0 37.333 L 29.754 50.924 L 59.613 37.288 L 59.613 32.274 L 29.754 45.878 Z M 169.216 26.318 C 169.233 24.134 168.416 22.026 166.931 20.426 C 166.233 19.677 165.392 19.076 164.458 18.658 C 163.51 18.232 162.482 18.015 161.443 18.022 C 160.404 18.015 159.376 18.232 158.428 18.658 C 157.494 19.076 156.653 19.677 155.955 20.426 C 154.47 22.027 153.653 24.135 153.67 26.319 C 153.652 28.502 154.47 30.61 155.955 32.212 C 156.653 32.96 157.494 33.56 158.428 33.979 C 159.376 34.404 160.404 34.621 161.443 34.616 C 162.482 34.621 163.51 34.404 164.458 33.979 C 165.392 33.56 166.233 32.96 166.931 32.212 C 168.416 30.61 169.234 28.502 169.216 26.319 L 169.216 26.318 Z M 176 26.318 C 176 28.362 175.623 30.255 174.87 31.999 C 174.146 33.7 173.088 35.239 171.76 36.525 C 170.441 37.798 168.894 38.804 167.12 39.542 C 165.345 40.281 163.453 40.65 161.443 40.65 C 159.433 40.65 157.549 40.28 155.79 39.542 C 154.072 38.83 152.505 37.799 151.173 36.502 C 149.847 35.204 148.791 33.658 148.063 31.952 C 147.31 30.208 146.933 28.33 146.933 26.319 C 146.933 24.339 147.318 22.477 148.087 20.733 C 148.832 19.024 149.895 17.472 151.22 16.16 C 152.547 14.85 154.115 13.81 155.837 13.096 C 157.596 12.357 159.464 11.988 161.443 11.988 C 163.453 11.988 165.345 12.357 167.12 13.096 C 168.894 13.834 170.441 14.84 171.76 16.113 C 173.08 17.385 174.116 18.902 174.87 20.662 C 175.623 22.422 176 24.307 176 26.319 L 176 26.318 Z M 144.578 39.801 C 143.997 40.068 143.389 40.274 142.764 40.414 C 142.077 40.572 141.373 40.651 140.668 40.65 C 139.663 40.65 138.697 40.516 137.77 40.25 C 136.876 40 136.048 39.557 135.344 38.953 C 134.654 38.356 134.104 37.578 133.695 36.619 C 133.287 35.661 133.083 34.506 133.083 33.154 L 133.083 0.815 L 140.008 0.815 L 140.008 31.975 C 140.008 33.107 140.236 33.885 140.691 34.309 C 141.147 34.734 141.688 34.946 142.316 34.946 C 143.102 34.946 143.856 34.71 144.578 34.239 L 144.578 39.801 L 144.578 39.801 Z M 130.02 12.648 L 117.771 45.034 C 116.861 47.454 115.667 49.198 114.191 50.267 C 112.715 51.335 110.956 51.87 108.914 51.87 C 108.568 51.867 108.222 51.844 107.878 51.799 C 107.512 51.754 107.151 51.683 106.795 51.587 L 104.533 45.27 C 105.062 45.52 105.615 45.717 106.183 45.86 C 106.706 45.995 107.243 46.066 107.783 46.071 C 108.852 46.071 109.825 45.828 110.705 45.341 C 111.584 44.853 112.259 43.95 112.73 42.63 L 113.673 39.896 L 103.167 12.648 L 110.563 12.648 L 116.829 30.184 L 122.718 12.648 L 130.02 12.648 L 130.02 12.648 Z M 101.518 8.546 L 83.806 8.546 L 83.806 17.315 L 101.284 17.315 L 101.284 23.255 L 83.806 23.255 L 83.806 39.943 L 76.646 39.943 L 76.646 2.277 L 101.519 2.277 L 101.519 8.547 L 101.518 8.546 Z" style="fill: rgb(0, 0, 0);"/>
  </g>
</svg>